<?xml version="1.0" encoding="UTF-8" standalone="no"?>
<svg id="bebffefa" preserveAspectRatio="xMidYMid meet" xmlns="http://www.w3.org/2000/svg" viewBox="0 0 200 196" class="css-1y5supu">
 <g>
  <path d="m169.9 152.9c-0.4 0.1-0.6 0.7-0.7 1.4 0 1.5-1 2.5-2.4 3.2s-3.1 1-4.7 1.3c-3.4 0.5-6.9 0.5-10.4 0.4s-7-0.4-10.8-0.4l-2.7 0.1h-2.6-5.4c-3.6 0.1-7.5 0.2-11.5 1.5-3.9 1.3-7 3.2-10 4.4-1.5 0.6-2.9 1-4.4 1.3-1.4 0.2-3.1 0.3-4.6 0.2-3-0.2-5.9-1.2-9-2.6-1.9-0.9-3.9-1.9-6.1-2.7-1.1-0.4-2.1-0.8-3.4-1.2s-2.5-0.6-3.7-0.8c-2.4-0.3-4.7-0.4-6.9-0.4l-3.2-0.1c-1.1 0-1.9-0.1-3.3-0.2-2.4-0.1-4.5-0.1-6.7-0.1s-4.3 0-6.4-0.1-4.2-0.3-6.2-0.6-3.9-0.8-5.3-1.4c-0.7-0.3-1.1-0.6-1.4-0.7s-0.7-0.2-1-0.4c-0.7-0.5-1.3-1.6-2.2-1.8-0.5-0.1-0.9 0-1.4 0.3-0.2 0.2-0.5 0.4-0.7 0.8s-0.4 0.8-0.5 1.4c-0.2 1.1 0.1 2.6 0.9 3.8 0.8 1.3 2 2.2 3.2 2.8 2.6 1.2 5 1.7 7.3 2.1s4.6 0.5 6.9 0.6c4.5 0.2 9 0.1 13.1 0.2 0.8 0 2.2 0.2 3.3 0.2l3.3 0.1c2.2 0.1 4.2 0.1 6.2 0.4 1 0.1 1.9 0.3 2.7 0.5s1.9 0.6 2.8 1c1.9 0.8 3.8 1.7 5.8 2.6 3.3 1.6 7.4 3 11.5 3.2 2.1 0.1 4 0 6.1-0.4s4-1 5.8-1.8c3.6-1.6 6.5-3.5 9.5-4.6 2.8-1.1 6.2-1.5 9.7-1.7l5.3-0.3 2.7-0.2 2.6-0.3c3.4-0.2 7.1-0.2 10.6-0.5 3.6-0.2 7.3-0.6 10.9-1.5 1.8-0.5 3.6-1.1 5.4-2.1 0.8-0.6 1.7-1.3 2.2-2.2 0.6-0.9 0.8-2.1 0.7-3.1 0.1-1.4-0.5-1.8-0.9-1.6z"/>
 </g>
</svg>
